<svg width="43" height="44" viewBox="0 0 43 44" fill="none" xmlns="http://www.w3.org/2000/svg">
<path d="M21.5 38.5C23.6176 38.5 25.7144 38.0732 27.6708 37.244C29.6271 36.4148 31.4048 35.1994 32.9021 33.6673C34.3994 32.1351 35.5872 30.3161 36.3976 28.3143C37.2079 26.3124 37.625 24.1668 37.625 22C37.625 19.8332 37.2079 17.6876 36.3976 15.6857C35.5872 13.6839 34.3994 11.8649 32.9021 10.3327C31.4048 8.80057 29.6271 7.58519 27.6708 6.75599C25.7144 5.92678 23.6176 5.5 21.5 5.5C17.2234 5.5 13.1219 7.23839 10.0979 10.3327C7.07388 13.4271 5.375 17.6239 5.375 22C5.375 26.3761 7.07388 30.5729 10.0979 33.6673C13.1219 36.7616 17.2234 38.5 21.5 38.5ZM21.5 38.5C24.6547 38.5034 27.7404 37.5545 30.3705 35.772C30.1627 33.9993 29.3279 32.3658 28.0238 31.1796C26.7197 29.9935 25.0365 29.3367 23.2917 29.3333H19.7083C17.9635 29.3367 16.2803 29.9935 14.9762 31.1796C13.6721 32.3658 12.8373 33.9993 12.6295 35.772C15.2596 37.5546 18.3452 38.5035 21.5 38.5ZM26.875 18.3333C26.875 19.792 26.3087 21.191 25.3007 22.2224C24.2927 23.2539 22.9255 23.8333 21.5 23.8333C20.0745 23.8333 18.7073 23.2539 17.6993 22.2224C16.6913 21.191 16.125 19.792 16.125 18.3333C16.125 16.8746 16.6913 15.4757 17.6993 14.4442C18.7073 13.4128 20.0745 12.8333 21.5 12.8333C22.9255 12.8333 24.2927 13.4128 25.3007 14.4442C26.3087 15.4757 26.875 16.8746 26.875 18.3333Z" stroke="white" stroke-width="2" stroke-linecap="round" stroke-linejoin="round"/>
</svg>
