<svg width="69" height="69" viewBox="0 0 69 69" fill="none" xmlns="http://www.w3.org/2000/svg">
<path d="M34.5 2.76001C16.9987 2.76001 2.76001 16.9987 2.76001 34.5C2.76001 48.1401 11.4093 59.7958 23.5102 64.2762C23.1617 61.169 23.2163 56.0804 23.7914 53.6166C24.33 51.3023 27.2708 38.8684 27.2708 38.8684C27.2708 38.8684 26.383 37.0905 26.383 34.4646C26.383 30.3382 28.7737 27.2594 31.751 27.2594C34.2832 27.2594 35.5043 29.1605 35.5043 31.4383C35.5043 33.9854 33.8849 37.79 33.0461 41.3161C32.3466 44.2706 34.5274 46.6795 37.4396 46.6795C42.7129 46.6795 46.7663 41.1187 46.7663 33.093C46.7663 25.9893 41.6631 21.0218 34.3745 21.0218C25.9334 21.0218 20.9785 27.3541 20.9785 33.8986C20.9785 36.448 21.9599 39.1822 23.1866 40.6703C23.4285 40.9646 23.4639 41.2214 23.392 41.5204C23.1672 42.4572 22.6674 44.4726 22.5681 44.8856C22.4392 45.43 22.1379 45.543 21.5764 45.2816C17.87 43.5562 15.5534 38.1392 15.5534 33.7868C15.5534 24.4282 22.3524 15.8319 35.1584 15.8319C45.4516 15.8319 53.45 23.165 53.45 32.9686C53.45 43.1944 47.0014 51.4233 38.0535 51.4233C35.0466 51.4233 32.2211 49.8611 31.2546 48.0158C31.2546 48.0158 29.7665 53.6805 29.4048 55.0693C28.7804 57.4711 26.1076 62.4468 24.7658 64.7068C27.8353 65.6983 31.1049 66.24 34.5 66.24C52.002 66.24 66.24 52.002 66.24 34.5C66.24 16.9987 52.002 2.76001 34.5 2.76001Z" fill="white"/>
</svg>
