<svg width="82" height="82" viewBox="0 0 82 82" fill="none" xmlns="http://www.w3.org/2000/svg">
<path d="M73.6334 23.78C72.98 20.1733 69.8665 17.5467 66.2534 16.7267C60.8465 15.58 50.84 14.76 40.0134 14.76C29.1933 14.76 19.0265 15.58 13.6133 16.7267C10.0065 17.5467 6.8867 20.0067 6.23326 23.78C5.57342 27.88 4.91998 33.62 4.91998 41C4.91998 48.38 5.57342 54.12 6.39342 58.22C7.05326 61.8267 10.1667 64.4533 13.7734 65.2733C19.5134 66.42 29.3534 67.24 40.18 67.24C51.0065 67.24 60.8465 66.42 66.5865 65.2733C70.1933 64.4533 73.3067 61.9933 73.9666 58.22C74.62 54.12 75.44 48.2135 75.6066 41C75.2734 33.62 74.4534 27.88 73.6334 23.78ZM31.16 52.48V29.52L51.1667 41L31.16 52.48Z" fill="white"/>
</svg>
