<svg width="66" height="66" viewBox="0 0 66 66" fill="none" xmlns="http://www.w3.org/2000/svg">
<path d="M48.125 17.875H48.1525M19.25 5.5H46.75C54.3439 5.5 60.5 11.6561 60.5 19.25V46.75C60.5 54.3439 54.3439 60.5 46.75 60.5H19.25C11.6561 60.5 5.5 54.3439 5.5 46.75V19.25C5.5 11.6561 11.6561 5.5 19.25 5.5ZM44 31.2675C44.3394 33.5562 43.9485 35.8936 42.8828 37.9473C41.8172 40.001 40.1312 41.6664 38.0645 42.7066C35.9978 43.7468 33.6557 44.1089 31.3714 43.7413C29.0871 43.3737 26.9768 42.2952 25.3408 40.6592C23.7048 39.0232 22.6263 36.9129 22.2587 34.6286C21.8911 32.3443 22.2532 30.0022 23.2934 27.9355C24.3336 25.8688 25.999 24.1828 28.0527 23.1172C30.1064 22.0515 32.4438 21.6606 34.7325 22C37.067 22.3462 39.2283 23.434 40.8972 25.1028C42.566 26.7717 43.6538 28.933 44 31.2675Z" stroke="#F3F3F3" stroke-width="4" stroke-linecap="round" stroke-linejoin="round"/>
</svg>
