<svg width="61" height="61" viewBox="0 0 61 61" fill="none" xmlns="http://www.w3.org/2000/svg">
<path d="M55.4545 0H5.54545C2.48159 0 0 2.48159 0 5.54545V55.4545C0 58.5184 2.48159 61 5.54545 61H55.4545C58.5184 61 61 58.5184 61 55.4545V5.54545C61 2.48159 58.5156 0 55.4545 0ZM51.8195 26.2688C51.459 26.3021 51.0958 26.3243 50.7298 26.3243C46.5846 26.3243 42.9412 24.1948 40.8201 20.9701C40.8201 29.4242 40.8201 39.0455 40.8201 39.2064C40.8201 46.6511 34.7839 52.6846 27.3419 52.6846C19.8999 52.6818 13.8636 46.6456 13.8636 39.2036C13.8636 31.7588 19.8999 25.7254 27.3419 25.7254C27.6247 25.7254 27.8992 25.7503 28.1737 25.767V32.4104C27.8964 32.3771 27.6275 32.3272 27.3419 32.3272C23.5432 32.3272 20.4627 35.4077 20.4627 39.2064C20.4627 43.005 23.5405 46.0855 27.3419 46.0855C31.1433 46.0855 34.4983 43.091 34.4983 39.2923C34.4983 39.1398 34.5648 8.32095 34.5648 8.32095H40.9116C41.5077 13.9967 46.091 18.4775 51.8195 18.8878V26.2688Z" fill="white"/>
</svg>
